<svg role="img" viewBox="0 0 2873.29 545" xmlns="http://www.w3.org/2000/svg"><title>BASF</title><g fill="#1C1917"><path d="M0,15.4V530.09H514.7V15.4ZM356.33,371.72h-198v-198h198Z"/><path d="M673.06 173.76H871.02V371.72H673.06z"/><path d="M1029.38,15.4h286.76c105.26,0,153.34,70.18,153.34,134.32,0,46.2-17.76,76-65.42,103.77,60.11,22.22,92.79,62.3,92.79,124.13,0,73.94-53.69,152.41-180.33,152.41H1029.25ZM1186,413.85h103.76c37,0,53.59-26.44,53.59-49.8,0,10.81,4.76-42.64-48.33-42.64H1186Zm.37-195.82h83.39c38.12,0,53.31-17.75,53.31-43.78,0-6-1.86-39.62-42.37-39.62h-94.33Z"/><path d="M1659.93,15.4h165.8l188.84,514H1844.39l-24.91-77H1660.62L1639.5,529H1470.62ZM1736.09,168l-43.77,171.66h93.58Z"/><path d="M2279,168.27h158.12C2437.16,81,2371.48,0,2215.66,0c-170.92,0-223.84,94.33-223.84,163.37,0,111.32,136.23,140.92,140.46,142.24,20.35,6.41,104.91,29.06,126,36.61,18.3,6.53,35.8,21.18,35.8,40.75,0,30-35.8,44.49-65.6,44.49-19.14,0-83.44-6.34-83.44-74.5H1981.71c0,90.52,62.27,191.82,237,191.82,192.8,0,233.14-115,233.14-176.16,0-49.91-28.27-105.27-93.52-131.63-39.26-15.85-104.32-29.74-137-39.28-16.47-4.83-71.35-15.94-71.35-49.43,0-42.9,70.72-37.35,60.4-37.35C2242.32,110.93,2279,128.92,2279,168.27Z"/><path d="M2478.66 15.28L2873.29 15.28 2873.29 151.12 2636.35 151.12 2636.35 241.67 2847.63 241.67 2847.63 371.47 2635.61 371.47 2635.61 529.94 2477.89 529.94 2478.66 15.28z"/></g></svg>
